# xmcd
#
# Track frame offsets: 
#        150
#        10248
#        21690
#        35172
#        45907
#        56670
#        67133
#        77992
#        89917
#        98088
#        108387
#        122362
#        133637
#        147786
#        158792
#        172219
#        183679
#        193745
#        204807
#        218999
#
# Disc length: 3102 seconds
#
# Revision: 11
# Processed by: cddbd v1.5.2PL0 Copyright (c) Steve Scherf et al.
# Submitted via: ExactAudioCopyFreeDBPlugin 1.0
#
DISCID=2c0c1c14
DTITLE=Various Artist - Millenium - 40 hits 1955-1959 - CD 1
DYEAR=1998
DGENRE=Rock/Pop
TTITLE0=Bill Haley and His Comets - Rock Around The Clock
TTITLE1=Buddy Holly - Peggy Sue
TTITLE2=Kay Starr - Rock And Roll Waltz
TTITLE3=Andy Williams - Butterfly
TTITLE4=Fats Domino - Blueberry Hill
TTITLE5=Frankie Lymon and The Teenagers - Why Do Fools Fall In Love?
TTITLE6=The Everly Brothers - Bye, Bye, Love
TTITLE7=Tennessee Ernie Ford - Sixteen Tons
TTITLE8=Alma Cogan - Dreamboat
TTITLE9=Dean Martin - Memories Are Made Of This
TTITLE10=Harry Belafonte - Banana Boat Song (Day-O)
TTITLE11=Ruby Murray - Softly Softly
TTITLE12=Ronnie Hilton - No Other Love
TTITLE13=Les Baxter - The Poor People Of Paris
TTITLE14=Gogi Grant - Wayward Wind
TTITLE15=Sonny James - Young Love
TTITLE16=Buddy Knox - Party Doll
TTITLE17=Little Richard - Tutti Frutti
TTITLE18=Louis Prima - Buona sera
TTITLE19=Perez Prado - Cherry Pink And Apple Blossom White
EXTD=YEAR: 1998
EXTT0=
EXTT1=
EXTT2=
EXTT3=
EXTT4=
EXTT5=
EXTT6=
EXTT7=
EXTT8=
EXTT9=
EXTT10=
EXTT11=
EXTT12=
EXTT13=
EXTT14=
EXTT15=
EXTT16=
EXTT17=
EXTT18=
EXTT19=
PLAYORDER=
